<svg xmlns="http://www.w3.org/2000/svg" viewBox="0 0 50 39" width="50" height="39">
	<g>
		<path fill="#a3bbc8" d="M0.09 27.83C0.18 27.65 6.5 14.89 6.67 14.57C6.84 14.24 7.05 14.18 7.18 14.12L42.37 0.07C42.37 0.07 42.94 -0.12 43.34 0.12C43.73 0.36 43.79 0.76 43.79 0.76L50.04 37.84C50.04 37.84 50.13 38.32 49.73 38.65C49.32 38.98 48.82 38.86 48.82 38.86L0.78 29.06C0.76 29.06 0.4 28.99 0.16 28.67C-0.08 28.36 0 28.01 0.09 27.83ZM36.03 21.81L25.69 23.96L45.74 35.11L36.03 21.81ZM2.74 26.92L20.57 23.21L8.05 16.23L2.74 26.92ZM23.31 22.64L35.68 20.06L41.24 2.47L9.71 15.06L23.31 22.64ZM42.49 5.13L37.58 20.65L47.36 34.05L42.49 5.13ZM22.95 24.54L5.43 28.19L43.48 35.95L22.95 24.54Z" />
	</g>
</svg>