<svg xmlns="http://www.w3.org/2000/svg" viewBox="0 0 19 18" width="19" height="18">
	<path fill="#a3bbc8" d="M5.53 17.98C4.99 17.98 4.46 17.77 4.06 17.37C3.47 16.78 3.29 15.89 3.61 15.11C3.93 14.33 4.69 13.83 5.53 13.83C5.53 13.83 5.53 13.83 5.53 13.83C6.08 13.83 6.6 14.04 6.99 14.43C7.39 14.83 7.6 15.35 7.6 15.9C7.6 16.74 7.1 17.49 6.33 17.82C6.07 17.93 5.8 17.98 5.53 17.98ZM5.53 15.01C5.53 15.01 5.53 15.01 5.53 15.01C5.17 15.01 4.85 15.23 4.71 15.56C4.57 15.9 4.65 16.28 4.9 16.53C5.16 16.79 5.54 16.86 5.87 16.72C6.2 16.58 6.42 16.26 6.42 15.9C6.42 15.66 6.32 15.44 6.16 15.27C5.99 15.11 5.77 15.01 5.53 15.01ZM13.92 17.98C13.38 17.98 12.85 17.77 12.46 17.37C11.86 16.78 11.68 15.89 12 15.11C12.33 14.33 13.08 13.83 13.92 13.83C14.46 13.79 15 14.05 15.39 14.43C15.78 14.83 15.99 15.35 15.99 15.9C16 16.74 15.5 17.49 14.72 17.82C14.46 17.93 14.19 17.98 13.92 17.98ZM13.92 15.01C13.92 15.01 13.92 15.01 13.92 15.01C13.59 15.05 13.24 15.23 13.1 15.56C12.96 15.9 13.04 16.28 13.29 16.53C13.55 16.79 13.93 16.86 14.26 16.72C14.6 16.58 14.81 16.26 14.81 15.9C14.81 15.66 14.72 15.44 14.55 15.27C14.38 15.11 14.16 15.01 13.92 15.01ZM2.65 15.18C2.56 15.18 2.48 15.16 2.4 15.12C2.1 14.98 1.97 14.63 2.11 14.34C2.69 13.1 3.74 12.36 5.16 12.18L4.11 6.79C4.05 6.47 4.25 6.16 4.58 6.1C4.9 6.03 5.21 6.25 5.27 6.57L6.36 12.14L15.79 12.14L17.59 5.37C17.58 5.37 4.3 5.37 4.29 5.37C2.16 5.37 0.32 3.79 0.01 1.68C-0.04 1.36 0.18 1.05 0.5 1.01C0.82 0.95 1.13 1.18 1.18 1.51C1.41 3.04 2.74 4.19 4.29 4.19C4.3 4.19 4.31 4.19 4.31 4.19L18.36 4.19C18.55 4.19 18.72 4.27 18.83 4.42C18.95 4.57 18.98 4.76 18.94 4.93L16.81 12.89C16.74 13.15 16.51 13.33 16.24 13.33L5.88 13.33C5.88 13.33 5.87 13.33 5.86 13.33C4.53 13.33 3.66 13.82 3.18 14.84C3.08 15.05 2.87 15.18 2.65 15.18Z" />
</svg>