<svg xmlns="http://www.w3.org/2000/svg" viewBox="0 0 98 98" width="98" height="98">
	<style>
		tspan { white-space:pre }
		.shp0 { fill: #a3bbc8 } 
		.shp1 { fill: #ffffff } 
	</style>
	<g id="video">
		<path id="Ellipse 11" class="shp0" d="M49 0C76.06 0 98 21.94 98 49C98 76.06 76.06 98 49 98C21.94 98 0 76.06 0 49C0 21.94 21.94 0 49 0Z" />
		<path id="Form 24" class="shp1" d="M58.68 51.74L42.64 61.54C42.14 61.84 41.56 62 40.98 62C40.5 62 40.02 61.89 39.58 61.68C38.61 61.21 38 60.29 38 59.29L38 39.7C38 38.7 38.61 37.78 39.58 37.31C40.55 36.85 41.73 36.9 42.64 37.46L58.68 47.25C59.51 47.76 60 48.6 60 49.5C60 50.4 59.51 51.24 58.68 51.74Z" />
	</g>
</svg>